<?xml version="1.0" encoding="utf-8"?>
<!-- Uploaded to: SVG Repo, www.svgrepo.com, Generator: SVG Repo Mixer Tools -->
<svg fill="#000000" version="1.1" id="Layer_1" xmlns="http://www.w3.org/2000/svg" xmlns:xlink="http://www.w3.org/1999/xlink" 
	 width="800px" height="800px" viewBox="0 0 256 253" enable-background="new 0 0 256 253" xml:space="preserve">
<path d="M182.372,184.66c0.217,0,0.439-0.005,0.656-0.011l-12.646,21.187H85.654L72.939,184.65
	c5.02,0.138,10.077-1.403,14.213-4.632c7.927,6.184,19.26,6.189,27.203,0c7.927,6.189,19.26,6.194,27.209,0
	c7.922,6.189,19.255,6.194,27.209,0C172.734,183.109,177.553,184.66,182.372,184.66z M195.765,170.281
	c0,1.408-0.746,3.351-1.822,4.526c-5.714,6.252-16.829,6.157-23.295-0.175l-1.859-1.848l-1.875,1.832
	c-6.476,6.348-17.015,6.348-23.475,0.016l-1.859-1.853l-1.869,1.837c-6.482,6.348-17.02,6.348-23.48,0.016l-1.853-1.853
	l-1.875,1.832c-6.476,6.353-17.015,6.353-23.475,0.021l-1.853-1.853l-1.875,1.832c-3.241,3.182-7.499,4.77-11.756,4.77
	c-4.247,0-13.308-2.224-13.308-9.101c0-3.679,2.986-6.665,6.667-6.665c1.266,0,2.446,0.36,3.453,0.969
	c12.45-18.54,33.601-30.748,57.616-30.748c24.026,0,45.182,12.219,57.632,30.775c1.017-0.63,2.208-0.995,3.495-0.995
	C192.778,163.616,195.765,166.602,195.765,170.281z M115.14,142.307c0,0-7.393,1.615-8.987,3.208c-1.594,1.594-1.594,4.182,0,5.776
	c1.599,1.594,4.183,1.594,5.777,0C113.525,149.698,115.14,142.307,115.14,142.307z M131.927,150.931
	c0-2.261-4.083-8.624-4.083-8.624s-4.083,6.369-4.083,8.624s1.827,4.082,4.083,4.082C130.1,155.013,131.927,153.187,131.927,150.931
	z M149.556,145.515c-1.594-1.594-8.986-3.208-8.986-3.208s1.615,7.391,3.209,8.984c1.599,1.594,4.183,1.594,5.777,0
	C151.155,149.698,151.155,147.109,149.556,145.515z M2,69c0,13.678,9.625,25.302,22,29.576V233H2v18h252v-18h-22V98.554
	c12.89-3.945,21.699-15.396,22-29.554v-8H2V69z M65.29,68.346c0,6.477,6.755,31.47,31.727,31.47
	c21.689,0,31.202-19.615,31.202-31.47c0,11.052,7.41,31.447,31.464,31.447c21.733,0,31.363-20.999,31.363-31.447
	c0,14.425,9.726,26.416,22.954,30.154V233H42V98.594C55.402,94.966,65.29,82.895,65.29,68.346z M222.832,22H223V2H34v20L2,54h252
	L222.832,22z"/>
</svg>