<?xml version="1.0" encoding="UTF-8"?>
<svg version="1.1" viewBox="0 0 2000 2000" width="1280" height="1280" xmlns="http://www.w3.org/2000/svg">
<path transform="translate(0)" d="m0 0h2e3v2e3h-2e3z" fill="#FDFDFD"/>
<path transform="translate(1438,432)" d="m0 0h6l3 5-2 4-14 9-13 11-7 7-13 18-9 16-6 15-6 20-5 24-3 24-2 34v507l3 14 7 14 11 12 14 8 10 3 22 2 2 2v5l-3 2h-187l-9-1v-7l1-1 21-2 12-3 11-6 10-9 7-10 5-12 2-8 1-242h-352v249l-2 42 29-13 19-10 18-12 13-10 12-10 1-2v-155l-2-9-6-10-8-6-10-4-6-1-21-1-1-1v-7l32-1h107l25 1v7l-4 1-19 1-9 2-11 6-8 11-2 8v143l2 28 4 26 7 28 8 22 8 16 10 18 10 13 12 14 12 11 12 9 16 10 16 8 20 8 25 7 22 4 17 2 15 1h30l31-2 31-3 8-1 1 1v6l-16 6-28 7-26 5-22 3-11 1h-44l-25-3-24-5-30-10-25-12-20-13-10-8-13-11-15-15-9-11-13-18-11-19-10-21-7-19-7-26v-2l-9 5-10 7-23 13-17 8-24 9-23 7-3 9-8 21-8 16-9 14-9 11-12 11-15 10-17 9-21 8-22 6-4-1-3-5 2-4 12-7 11-9 13-13 10-14 9-16 7-17 5-19h-47l-30-3-30-5-24-6-30-10-24-11-23-12-14-9-18-13-13-11-11-9-12-12-7-8-13-16-13-19-13-22-10-21-9-24-7-27-5-30-2-21v-35l2-23 5-29 6-23 8-23 11-24 9-17 11-17 12-16 12-14 23-23 11-9 16-12 19-12 18-10 20-9 24-9 23-7 33-7 24-3 15-1h50l13 1-3-12-6-12-11-12-11-7-11-4-13-2-13-1-1-1v-7l21-1h168l10 1v8l-23 2-13 4-10 6-10 9-7 11-5 14-1 6v8l21 6 20 7 21 9 24 12 18 11 2 3 6 43 10 70v4h-6l-3-5-7-20-5-12-8-16-7-12-9-12-11-13-12-11-15-11-15-9-21-10-4-1v207l267-1h84l1-232 2-33 3-25 5-22 6-20 8-18 9-16 7-9 9-10 10-9 15-10 15-8 17-7z" fill="#BBA773"/>
<path transform="translate(845,633)" d="m0 0h19l31 2 1 3v481l-1 41-2 24-2 8-2 1-12 1h-36l-21-2-27-5-24-7-20-8-20-10-19-12-14-11-14-12-19-19-9-11-10-13-11-17-9-16-8-17-9-25-6-22-4-21-3-26v-57l4-30 6-26 8-26 10-23 10-19 13-19 10-13 12-13 11-12 10-9 17-13 18-12 22-12 23-9 24-7 20-4 16-2z" fill="#FDFDFD"/>
<path transform="translate(1438,432)" d="m0 0h6l3 5-2 4-14 9-13 11-7 7-13 18-9 16-6 15-6 20-5 24-3 24-2 34v507l3 14 7 14 11 12 14 8 10 3 22 2 2 2v5l-3 2h-187l-9-1v-7l1-1 21-2 12-3 11-6 10-9 7-10 5-12 2-8 1-242h-352v249l-1 23-2 20-11 4-24 6-23 4h-2v-9l2-24 1-41 1-484 10 1 27 6 21 7 1 1v209l267-1h84l1-232 2-33 3-25 5-22 6-20 8-18 9-16 7-9 9-10 10-9 15-10 15-8 17-7z" fill="#010101"/>
<path transform="translate(1266,1505)" d="m0 0 3 3 18 38 19 40 9 19 6 9 3 2h14l3-2 1-8v-81l-1-17 5 3 15 13 11 10 8 7 10 9 8 7 10 9 11 9 6 5v-60l-2-5-10-4v-1h50l-1 2-9 4-1 3v103l-4-2-14-13-8-7-10-9-11-9-13-12-8-7-14-12-1-1-1 52 1 11 1 3 8 1 1 2-7 1h-90l-3-2 5-3h2l-1-8-6-14v-2l-38 1-6 12-2 5-1 6 6 2v3h-40l-13-1-10-4-8-7-9-14-8-17-3-6-6-5 1-2 11-1 5-4 4-8 2-8-1-11-4-7v-2l-5-2-7-2-12-1v88l1 7 5 3 4 2-4 2h-39l-4-1v-2l8-3 1-1v-96l-7-4-3-3h56l15 2 11 4 8 7 4 7 1 5v11l-4 11-6 7-12 6 10 9 7 10 10 15 7 9 7 3 5-3 10-19 13-29 8-16 14-31 4-12z" fill="#010101"/>
<path transform="translate(638,1508)" d="m0 0 19 1 12 3 11 5 10 7 7 7 6 10 3 9 1 6v18l-3 13-6 11-8 9-14 9-13 4-14 2h-12l-15-2-12-4-12-7-10-10-7-14-3-14v-12l3-14 6-12 9-10 12-8 15-5z" fill="#010101"/>
<path transform="translate(721,1510)" d="m0 0h60l14 1 15 4 14 7 8 7 7 11 4 12 1 7v13l-3 14-5 10-9 10-11 7-11 4-11 2-23 1h-45l-5-1v-2l9-3 1-1 1-11v-75l-1-9-4-4-6-3z" fill="#010101"/>
<path transform="translate(1008,393)" d="m0 0h9l15 3 11 6 9 8 7 11 4 10 1 4v18l-4 13-6 9-6 7-10 7-10 4-5 1h-18l-11-3-10-6-9-8-8-12-3-9-1-13 2-14 4-10 7-10 9-8 13-6z" fill="#BCA874"/>
<path transform="translate(845,550)" d="m0 0h170l10 1v8l-23 2-13 4-10 6-10 9-7 11-5 14-2 14-10-1-30-5-17-2-3-3-5-16-7-11-8-8-11-7-11-4-13-2-13-1-1-1v-7z" fill="#010101"/>
<path transform="translate(857,1510)" d="m0 0h49l-3 3-7 4-1 3-1 41h48l-1-43-4-4-6-3v-1h49l-10 8-1 8v85l2 4 7 2v2l-6 1h-36l-4-1v-2l9-2v-45h-46v41l1 4 9 3-4 2h-40l-4-1v-2l9-3 1-2v-96l-5-2-5-3z" fill="#010101"/>
<path transform="translate(488,1490)" d="m0 0h23l23 4 13 5 1 1 1 10v20h-3l-5-13-7-9-10-6-9-3-6-1h-9l-11 2-12 6-7 7-8 16-3 13v29l4 16 6 12 7 8 12 6 6 1h12l10-3 6-4 5-5 2-4v-33l-3-3-8-2v-1h51l-3 2-6 2-2 4-1 32-5 6-11 7-11 5-16 4-7 1h-20l-16-3-12-5-12-9-8-9-7-14-3-11-1-7v-14l3-17 5-12 9-12 11-9 13-6 11-3z" fill="#010101"/>
<path transform="translate(641,1515)" d="m0 0 13 2 8 4 8 8 6 12 3 13v23l-3 13-7 13-9 8-11 4h-12l-10-3-9-7-7-11-4-13-1-6v-20l4-16 6-11 7-7 8-4z" fill="#FCFCFB"/>
<path transform="translate(944,1209)" d="m0 0 3 1-3 9-8 21-8 16-9 14-9 11-12 11-15 10-17 9-21 8-22 6-4-1-3-5 2-4 12-7 11-9 13-13 10-14 9-16 7-17 6-20 7-2 35-5z" fill="#010101"/>
<path transform="translate(1649,1505)" d="m0 0 3 3 18 38 19 40 10 21 6 8 8 3-1 2h-46l-4-2 6-3v-7l-6-15-1-1h-39l-3 10-3 8v5l7 3-2 2h-26l-6-1v-2l9-3 5-8 12-25 13-28 14-30z" fill="#010101"/>
<path transform="translate(759,1518)" d="m0 0h28l9 3 10 8 5 8 4 12 1 5v22l-3 13-6 11-7 7-9 4-4 1-13 1h-14l-2-2z" fill="#FDFCFC"/>
<path transform="translate(1538,1508)" d="m0 0 17 1 14 3 10 4 2 2-1 27-3-4-4-10-7-8-10-5-10-2-15 1-10 4-9 8-7 14-2 9v25l3 12 6 12 3 3v2l14 7 6 1h14l13-4 6-4 5-6 5-11 3-14 2 1 2 16v10l-4 6-11 8-16 5-13 2-5 5-1 2h12l4 2 3 5v8l-3 6-6 4-9 3h-7l-4-2v-2l12-4 3-4 1-6-5-5-6-1-5 1-1-2 8-12h-10l-16-5-10-5-10-9-6-9-4-11-2-11v-15l3-12 6-12 7-8 10-7 11-5 13-3z" fill="#010101"/>
<path transform="translate(1071,1509)" d="m0 0h5v26l-2 1-3-11-5-5-3-1-31-1v43h24l6-3 2-3 1-7 2-1 1 8v17l-1 12-2-1-3-10-4-2-25-1-1 1v41h11l16-1 10-3 7-6 5-9 3-6h1l-1 10-4 22-4 1h-79l-2-1v-2l9-2v-97l-4-4-6-3v-1z" fill="#010101"/>
<path transform="translate(751,958)" d="m0 0h19l9 4 7 6 6 12 1 6v8l-2 9-6 9-9 7-12 3-13-1-12-6-7-9-3-7-1-5v-9l3-10 6-9 8-6z" fill="#010101"/>
<path transform="translate(1642,1547)" d="m0 0 3 4 13 31v2h-32l15-36z" fill="#FAFAF7"/>
<path transform="translate(1259,1547)" d="m0 0 2 1 12 29 2 7h-31l1-5 7-17 5-11z" fill="#FBFAF8"/>
</svg>
