<?xml version='1.0' encoding='iso-8859-1'?>
<!-- Uploaded to: SVG Repo, www.svgrepo.com, Generator: SVG Repo Mixer Tools -->
<svg fill="#000000" height="800px" width="800px" version="1.1" xmlns="http://www.w3.org/2000/svg" viewBox="0 0 470 470" xmlns:xlink="http://www.w3.org/1999/xlink" enable-background="new 0 0 470 470">
  <g>
    <path d="m242.5,335c-59.275,0-107.5-48.225-107.5-107.5 0-37.22-30.28-67.5-67.5-67.5s-67.5,30.28-67.5,67.5c0,64.774 25.225,125.672 71.026,171.474 18.981,18.98 40.688,34.552 64.516,46.28 3.716,1.833 8.211,0.3 10.042-3.416 1.829-3.717 0.299-8.212-3.417-10.041-22.351-11.002-42.718-25.614-60.533-43.431-42.97-42.968-66.634-100.097-66.634-160.866 0-28.948 23.552-52.5 52.5-52.5s52.5,23.552 52.5,52.5c0,67.547 54.953,122.5 122.5,122.5 28.948,0 52.5,23.552 52.5,52.5s-23.552,52.5-52.5,52.5c-25.196,0-49.93-4.069-73.513-12.095-3.919-1.334-8.181,0.762-9.517,4.685-1.334,3.921 0.763,8.182 4.685,9.517 25.143,8.555 51.501,12.893 78.345,12.893 37.22,0 67.5-30.28 67.5-67.5s-30.28-67.5-67.5-67.5z"/>
    <circle cx="217" cy="416" r="7.5"/>
    <circle cx="84" cy="223" r="7.5"/>
    <circle cx="54" cy="253" r="7.5"/>
    <circle cx="407" cy="256" r="7.5"/>
    <circle cx="377" cy="226" r="7.5"/>
    <path d="M402.5,175c-38.195,0-73.864-20.609-93.088-53.785c-2.076-3.584-6.666-4.806-10.249-2.729   c-3.584,2.076-4.807,6.665-2.729,10.249C318.33,166.524,358.973,190,402.5,190c28.948,0,52.5,23.552,52.5,52.5   S431.448,295,402.5,295c-60.769,0-117.898-23.664-160.866-66.634C198.664,185.398,175,128.269,175,67.5   c0-28.948,23.552-52.5,52.5-52.5S280,38.552,280,67.5c0,10.724,1.403,21.394,4.171,31.713c1.074,4.002,5.188,6.376,9.188,5.301   c4-1.073,6.374-5.187,5.301-9.188C296.231,86.274,295,76.912,295,67.5C295,30.28,264.72,0,227.5,0S160,30.28,160,67.5   c0,64.774,25.225,125.672,71.026,171.474S337.726,310,402.5,310c37.22,0,67.5-30.28,67.5-67.5S439.72,175,402.5,175z"/>
  </g>
</svg>